<svg width="482" height="368" viewBox="0 0 482 368" fill="none" xmlns="http://www.w3.org/2000/svg">
    <g filter="url(#filter0_d_13_3)">
        <path fill-rule="evenodd" clip-rule="evenodd"
            d="M233.5 210.001C240.137 224.465 261.861 216.038 264.5 209.001C267.139 201.963 265.5 161.501 265.5 161.501C271.856 151.508 274.474 148.601 277 149.501C267.129 203.246 274 289.001 281 295.001C288 301.001 307.5 286.5 308 286.001C308.5 285.502 307.897 267.759 307 255.501C315.943 234.5 321.444 222.879 334 203.001C349.486 208.941 358.384 208.925 374.5 205.001C398.626 194.767 406.063 187.258 419.5 172.001C425.006 179.104 428.908 181.963 437 185.501C447.871 187.688 453.345 187.729 462 185.501C469.141 182.8 472.51 180.85 476.5 176.001C476.842 172.112 476.398 170.583 474 169.501C473.418 169.351 472.866 169.201 472.337 169.058C468.181 167.935 465.443 167.194 461 169.501C454.093 166.806 448.831 161.913 449 161.501C444.89 143.363 444.748 133.498 449 115.501C450.111 107.689 451.013 103.185 453 95.0008C453.898 89.9381 454.122 87.1547 453 82.5008L449 79.0008C436.504 77.4019 431.636 79.1038 424.5 84.0008C416.488 108.312 414.352 122.285 412.5 147.501C397.343 154.231 391.606 160.492 384.5 174.501C371.346 188.745 364.002 191.102 351 179.501C368.229 159.005 379.417 149.243 403.5 136.501L405.5 134.501C405.928 131.751 406.059 130.165 405.5 127.001C395.973 113.869 390.543 106.628 374.5 102.501C365.026 100.093 360.042 100.385 351 102.501C332.806 111.342 322.62 121.053 318.49 134.501C308.374 155.123 319.503 185.41 320.867 189.124C320.96 189.378 321.008 189.507 321 189.501C320.883 189.406 304.583 213.539 303.49 216.262L303.5 216.501C303.411 216.542 303.412 216.456 303.49 216.262C301.755 175.16 303.323 151.943 309.5 110.501C308.803 108.404 308.175 107.497 306.5 106.501H296C282.006 116.198 276.712 121.949 267.588 131.862L267 132.501C270.464 85.8133 275.811 60.0285 289.5 14.5008C290.525 7.32021 290.538 5.45245 289.5 4.50085C274.016 -6.98449 264.393 11.4468 245.5 90.0004C242.531 102.577 241.848 110.441 241.053 119.607C240.305 128.241 239.455 138.03 236.5 154.001C212.669 125.506 189.197 111.727 127 91.5008C132.698 83.4588 135.371 78.6747 138 69.0008C139.987 56.8146 139.925 51.4097 138 44.0008C131.163 30.2121 125.392 27.0007 113.5 25.0009C106.098 23.6942 102.55 23.7833 97 25.0009C68.3858 33.0509 59.4012 43.0641 50.5 66.5009C47.9427 73.1228 47.9818 76.1705 50.5 80.5008C61.7021 98.0289 70.2902 104.616 88 113.001C66.0772 130.738 52.5146 140.319 28 157.501C28.0506 158.659 32.2346 159.988 40 159C47.7654 158.013 102.831 121.689 101 120.001C158.132 138.375 178.418 150.472 192 175.501C192.985 180.442 193.449 183.155 192 186.501C170.904 221.121 155.494 231.938 125 244.001C121.485 244.659 119.515 244.664 116 244.001C110.387 244.138 103.017 241.129 91.7051 236.511C79.4776 232.043 73.1992 231.14 64 235.001C55.9711 238.381 45.4375 245.147 17 265C13.7901 266.539 11.2914 267.049 5 267.001C12.8137 278.504 20.2421 281.459 35 285.001C49.0589 286.622 56.9396 286.483 71 285.001C80.6358 283.838 85.978 281.426 95.5 277.001C89.8903 287.258 88.1346 293.243 85.5 304.001C84.8971 313.886 84.7263 318.964 85.5 325.001C86.2737 331.038 97.6916 349.961 111.5 358.501C114.254 359.732 116.895 359.788 120 358.501C120.479 355.465 120.344 353.619 120.185 351.446C120.092 350.177 119.992 348.796 120 347.001C120.011 344.634 124.748 339.164 130.183 332.888C135.925 326.257 142.448 318.725 145 313.001C149.568 302.756 143.329 268.248 140.232 264.687C139.939 264.653 139.694 264.592 139.5 264.501C139.714 264.301 139.961 264.375 140.232 264.687C151.238 265.961 229.888 227.894 233.5 210.001ZM355.5 120.5C349.759 126.17 347.993 131.02 346 141C344.759 147.969 344.701 152.861 345 160.5C354.47 152.869 360.823 148.428 368.607 142.987C370.616 141.582 372.721 140.111 375 138.5C370.644 128.332 366.932 123.43 355.5 120.5ZM85 68C90.9807 76.2808 96.5663 79.4124 108 84C112.272 77.7312 113.909 73.9649 114.5 66.5009C114.938 59.9245 115.027 56.7113 114.5 53C111.915 46.2058 109.722 43.6172 104 42C100.377 41.5909 98.7301 41.5405 97 42C89.043 45.6837 86.4423 49.3981 84 58C83.1761 62.029 83.3088 64.2319 85 68Z"
            fill="white"
            class="logo-fill"
        />
        <path
            d="M430.5 70.0004C428.315 65.722 427.953 63.2085 429 58.5004C436.069 48.4886 440.862 43.9197 450 36.5004C457.914 31.7061 465.313 34.2466 467 35C468.687 35.7534 469.585 36.6188 471 39.0004V41.5004C467.661 48.994 465.372 52.9532 460.5 59.5004C454.017 65.3771 450.138 68.3435 442 72.0004H434L430.5 70.0004Z"
            fill="white"
            class="logo-fill"
        />
        <path
            d="M303.5 216.501C303.411 216.542 303.412 216.456 303.49 216.262M303.5 216.501C303.497 216.421 303.493 216.341 303.49 216.262M303.5 216.501L303.49 216.262M306.5 106.501C308.175 107.497 308.803 108.404 309.5 110.501C303.323 151.943 301.755 175.16 303.49 216.262M306.5 106.501C302.399 106.501 300.101 106.501 296 106.501M306.5 106.501H296M296 106.501C282.006 116.198 276.712 121.949 267.588 131.862M267 132.501C270.464 85.8133 275.811 60.0285 289.5 14.5008C290.525 7.32021 290.538 5.45245 289.5 4.50085C274.016 -6.98449 264.393 11.4468 245.5 90.0004C242.531 102.577 241.848 110.441 241.053 119.607C240.305 128.241 239.455 138.03 236.5 154.001C212.669 125.506 189.197 111.727 127 91.5008C132.698 83.4588 135.371 78.6747 138 69.0008C139.987 56.8146 139.925 51.4097 138 44.0008C131.163 30.2121 125.392 27.0007 113.5 25.0009C106.098 23.6942 102.55 23.7833 97 25.0009C68.3858 33.0509 59.4012 43.0641 50.5 66.5009C47.9427 73.1228 47.9818 76.1705 50.5 80.5008C61.7021 98.0289 70.2902 104.616 88 113.001C66.0772 130.738 52.5146 140.319 28 157.501C28.0506 158.659 32.2346 159.988 40 159C47.7654 158.013 102.831 121.689 101 120.001C158.132 138.375 178.418 150.472 192 175.501C192.985 180.442 193.449 183.155 192 186.501C170.904 221.121 155.494 231.938 125 244.001C121.485 244.659 119.515 244.664 116 244.001C110.387 244.138 103.017 241.129 91.7051 236.511C79.4776 232.043 73.1992 231.14 64 235.001C55.9711 238.381 45.4375 245.147 17 265C13.7901 266.539 11.2914 267.049 5 267.001C12.8137 278.504 20.2421 281.459 35 285.001C49.0589 286.622 56.9396 286.483 71 285.001C80.6358 283.838 85.978 281.426 95.5 277.001C89.8903 287.258 88.1346 293.243 85.5 304.001C84.8971 313.886 84.7263 318.964 85.5 325.001C86.2737 331.038 97.6916 349.961 111.5 358.501C114.254 359.732 116.895 359.788 120 358.501C120.479 355.465 120.344 353.619 120.185 351.446C120.092 350.177 119.992 348.796 120 347.001C120.011 344.634 124.748 339.164 130.183 332.888C135.925 326.257 142.448 318.725 145 313.001C149.568 302.756 143.329 268.248 140.232 264.687M267 132.501L267.588 131.862M267 132.501C267.198 132.286 267.394 132.073 267.588 131.862M345 160V160.5M345 160.5C344.701 152.861 344.759 147.969 346 141C347.993 131.02 349.759 126.17 355.5 120.5C366.932 123.43 370.644 128.332 375 138.5C372.721 140.111 370.616 141.582 368.607 142.987C360.823 148.428 354.47 152.869 345 160.5ZM303.49 216.262C304.583 213.539 320.883 189.406 321 189.501C321.008 189.507 320.96 189.378 320.867 189.124C319.503 185.41 308.374 155.123 318.49 134.501C322.62 121.053 332.806 111.342 351 102.501C360.042 100.385 365.026 100.093 374.5 102.501C390.543 106.628 395.973 113.869 405.5 127.001C406.059 130.165 405.928 131.751 405.5 134.501L403.5 136.501C379.417 149.243 368.229 159.005 351 179.501C364.002 191.102 371.346 188.745 384.5 174.501C391.606 160.492 397.343 154.231 412.5 147.501C414.352 122.285 416.488 108.312 424.5 84.0008C431.636 79.1038 436.504 77.4019 449 79.0008L453 82.5008C454.122 87.1547 453.898 89.9381 453 95.0008C451.013 103.185 450.111 107.689 449 115.501C444.748 133.498 444.89 143.363 449 161.501C448.831 161.913 454.093 166.806 461 169.501C465.443 167.194 468.181 167.935 472.337 169.058C472.866 169.201 473.418 169.351 474 169.501C476.398 170.583 476.842 172.112 476.5 176.001C472.51 180.85 469.141 182.8 462 185.501C453.345 187.729 447.871 187.688 437 185.501C428.908 181.963 425.006 179.104 419.5 172.001C406.063 187.258 398.626 194.767 374.5 205.001C358.384 208.925 349.486 208.941 334 203.001C321.444 222.879 315.943 234.5 307 255.501C307.897 267.759 308.5 285.502 308 286.001C307.5 286.5 288 301.001 281 295.001C274 289.001 267.129 203.246 277 149.501C274.474 148.601 271.856 151.508 265.5 161.501C265.5 161.501 267.139 201.963 264.5 209.001C261.861 216.038 240.137 224.465 233.5 210.001C229.888 227.894 151.238 265.961 140.232 264.687M140.232 264.687C139.961 264.375 139.714 264.301 139.5 264.501C139.694 264.592 139.939 264.653 140.232 264.687ZM430.5 70.0004C428.315 65.722 427.953 63.2085 429 58.5004C436.069 48.4886 440.862 43.9197 450 36.5004C457.914 31.7061 465.313 34.2466 467 35C468.687 35.7534 469.585 36.6188 471 39.0004V41.5004C467.661 48.994 465.372 52.9532 460.5 59.5004C454.017 65.3771 450.138 68.3435 442 72.0004H434L430.5 70.0004ZM108 84C96.5663 79.4124 90.9807 76.2808 85 68C83.3088 64.2319 83.1761 62.029 84 58C86.4423 49.3981 89.043 45.6837 97 42C98.7301 41.5405 100.377 41.5909 104 42C109.722 43.6172 111.915 46.2058 114.5 53C115.027 56.7113 114.938 59.9245 114.5 66.5009C113.909 73.9649 112.272 77.7312 108 84Z"
            stroke="black" />
    </g>
    <defs>
        <filter id="filter0_d_13_3" x="0.0507812" y="0.880859" width="481.051" height="367.064"
            filterUnits="userSpaceOnUse" color-interpolation-filters="sRGB">
            <feFlood flood-opacity="0" result="BackgroundImageFix" />
            <feColorMatrix in="SourceAlpha" type="matrix"
                values="0 0 0 0 0 0 0 0 0 0 0 0 0 0 0 0 0 0 127 0" result="hardAlpha" />
            <feOffset dy="4" />
            <feGaussianBlur stdDeviation="2" />
            <feComposite in2="hardAlpha" operator="out" />
            <feColorMatrix type="matrix" values="0 0 0 0 0 0 0 0 0 0 0 0 0 0 0 0 0 0 0.25 0" />
            <feBlend mode="normal" in2="BackgroundImageFix" result="effect1_dropShadow_13_3" />
            <feBlend mode="normal" in="SourceGraphic" in2="effect1_dropShadow_13_3" result="shape" />
        </filter>
    </defs>
</svg>